<mxfile host="app.diagrams.net" agent="Mozilla/5.0 (Windows NT 10.0; Win64; x64) AppleWebKit/537.36 (KHTML, like Gecko) Chrome/129.0.0.0 Safari/537.36 Edg/129.0.0.0" version="24.7.17">
  <diagram name="第 1 页" id="qsuVyvbhFHqotlB28iIr">
    <mxGraphModel dx="2404" dy="2171" grid="1" gridSize="10" guides="1" tooltips="1" connect="1" arrows="1" fold="1" page="1" pageScale="1" pageWidth="827" pageHeight="1169" math="0" shadow="0">
      <root>
        <mxCell id="0" />
        <mxCell id="1" parent="0" />
        <mxCell id="m-NyeYcFWqAB6fJ0VtxW-3" value="" style="edgeStyle=orthogonalEdgeStyle;rounded=0;orthogonalLoop=1;jettySize=auto;html=1;" parent="1" source="m-NyeYcFWqAB6fJ0VtxW-1" target="m-NyeYcFWqAB6fJ0VtxW-2" edge="1">
          <mxGeometry relative="1" as="geometry" />
        </mxCell>
        <mxCell id="m-NyeYcFWqAB6fJ0VtxW-1" value="等待開始" style="rounded=0;whiteSpace=wrap;html=1;" parent="1" vertex="1">
          <mxGeometry x="350" y="230" width="120" height="60" as="geometry" />
        </mxCell>
        <mxCell id="m-NyeYcFWqAB6fJ0VtxW-5" value="" style="edgeStyle=orthogonalEdgeStyle;rounded=0;orthogonalLoop=1;jettySize=auto;html=1;" parent="1" source="m-NyeYcFWqAB6fJ0VtxW-2" target="m-NyeYcFWqAB6fJ0VtxW-4" edge="1">
          <mxGeometry relative="1" as="geometry" />
        </mxCell>
        <mxCell id="m-NyeYcFWqAB6fJ0VtxW-2" value="示範題組" style="whiteSpace=wrap;html=1;rounded=0;" parent="1" vertex="1">
          <mxGeometry x="550" y="230" width="120" height="60" as="geometry" />
        </mxCell>
        <mxCell id="m-NyeYcFWqAB6fJ0VtxW-7" value="" style="edgeStyle=orthogonalEdgeStyle;rounded=0;orthogonalLoop=1;jettySize=auto;html=1;" parent="1" source="m-NyeYcFWqAB6fJ0VtxW-4" target="m-NyeYcFWqAB6fJ0VtxW-6" edge="1">
          <mxGeometry relative="1" as="geometry" />
        </mxCell>
        <mxCell id="m-NyeYcFWqAB6fJ0VtxW-34" value="No" style="edgeLabel;html=1;align=center;verticalAlign=middle;resizable=0;points=[];" parent="m-NyeYcFWqAB6fJ0VtxW-7" vertex="1" connectable="0">
          <mxGeometry x="-0.1611" y="2" relative="1" as="geometry">
            <mxPoint as="offset" />
          </mxGeometry>
        </mxCell>
        <mxCell id="m-NyeYcFWqAB6fJ0VtxW-9" value="" style="edgeStyle=orthogonalEdgeStyle;rounded=0;orthogonalLoop=1;jettySize=auto;html=1;" parent="1" source="m-NyeYcFWqAB6fJ0VtxW-4" target="m-NyeYcFWqAB6fJ0VtxW-8" edge="1">
          <mxGeometry relative="1" as="geometry" />
        </mxCell>
        <mxCell id="m-NyeYcFWqAB6fJ0VtxW-33" value="Yes" style="edgeLabel;html=1;align=center;verticalAlign=middle;resizable=0;points=[];" parent="m-NyeYcFWqAB6fJ0VtxW-9" vertex="1" connectable="0">
          <mxGeometry x="-0.2407" relative="1" as="geometry">
            <mxPoint as="offset" />
          </mxGeometry>
        </mxCell>
        <mxCell id="m-NyeYcFWqAB6fJ0VtxW-4" value="五位隊員都玩過了嗎" style="rhombus;whiteSpace=wrap;html=1;rounded=0;" parent="1" vertex="1">
          <mxGeometry x="770" y="190" width="140" height="140" as="geometry" />
        </mxCell>
        <mxCell id="m-NyeYcFWqAB6fJ0VtxW-13" value="" style="edgeStyle=orthogonalEdgeStyle;rounded=0;orthogonalLoop=1;jettySize=auto;html=1;" parent="1" source="m-NyeYcFWqAB6fJ0VtxW-6" target="m-NyeYcFWqAB6fJ0VtxW-12" edge="1">
          <mxGeometry relative="1" as="geometry" />
        </mxCell>
        <mxCell id="m-NyeYcFWqAB6fJ0VtxW-6" value="派一位隊員參與" style="whiteSpace=wrap;html=1;rounded=0;" parent="1" vertex="1">
          <mxGeometry x="780" y="450" width="120" height="60" as="geometry" />
        </mxCell>
        <mxCell id="m-NyeYcFWqAB6fJ0VtxW-11" value="" style="edgeStyle=orthogonalEdgeStyle;rounded=0;orthogonalLoop=1;jettySize=auto;html=1;" parent="1" source="m-NyeYcFWqAB6fJ0VtxW-8" target="m-NyeYcFWqAB6fJ0VtxW-10" edge="1">
          <mxGeometry relative="1" as="geometry" />
        </mxCell>
        <mxCell id="m-NyeYcFWqAB6fJ0VtxW-8" value="結算隊伍成績" style="whiteSpace=wrap;html=1;rounded=0;" parent="1" vertex="1">
          <mxGeometry x="1000" y="230" width="120" height="60" as="geometry" />
        </mxCell>
        <mxCell id="m-NyeYcFWqAB6fJ0VtxW-38" value="" style="edgeStyle=orthogonalEdgeStyle;rounded=0;orthogonalLoop=1;jettySize=auto;html=1;" parent="1" source="m-NyeYcFWqAB6fJ0VtxW-10" target="m-NyeYcFWqAB6fJ0VtxW-37" edge="1">
          <mxGeometry relative="1" as="geometry" />
        </mxCell>
        <mxCell id="m-NyeYcFWqAB6fJ0VtxW-10" value="工商時間" style="whiteSpace=wrap;html=1;rounded=0;" parent="1" vertex="1">
          <mxGeometry x="1200" y="230" width="120" height="60" as="geometry" />
        </mxCell>
        <mxCell id="m-NyeYcFWqAB6fJ0VtxW-17" value="" style="edgeStyle=orthogonalEdgeStyle;rounded=0;orthogonalLoop=1;jettySize=auto;html=1;" parent="1" source="m-NyeYcFWqAB6fJ0VtxW-12" target="m-NyeYcFWqAB6fJ0VtxW-16" edge="1">
          <mxGeometry relative="1" as="geometry" />
        </mxCell>
        <mxCell id="m-NyeYcFWqAB6fJ0VtxW-12" value="主持人選分類" style="whiteSpace=wrap;html=1;rounded=0;" parent="1" vertex="1">
          <mxGeometry x="980" y="450" width="120" height="60" as="geometry" />
        </mxCell>
        <mxCell id="m-NyeYcFWqAB6fJ0VtxW-19" value="" style="edgeStyle=orthogonalEdgeStyle;rounded=0;orthogonalLoop=1;jettySize=auto;html=1;" parent="1" source="m-NyeYcFWqAB6fJ0VtxW-16" target="m-NyeYcFWqAB6fJ0VtxW-18" edge="1">
          <mxGeometry relative="1" as="geometry" />
        </mxCell>
        <mxCell id="m-NyeYcFWqAB6fJ0VtxW-32" value="No" style="edgeLabel;html=1;align=center;verticalAlign=middle;resizable=0;points=[];" parent="m-NyeYcFWqAB6fJ0VtxW-19" vertex="1" connectable="0">
          <mxGeometry x="-0.0545" y="2" relative="1" as="geometry">
            <mxPoint as="offset" />
          </mxGeometry>
        </mxCell>
        <mxCell id="m-NyeYcFWqAB6fJ0VtxW-28" value="" style="edgeStyle=orthogonalEdgeStyle;rounded=0;orthogonalLoop=1;jettySize=auto;html=1;" parent="1" source="m-NyeYcFWqAB6fJ0VtxW-16" target="m-NyeYcFWqAB6fJ0VtxW-27" edge="1">
          <mxGeometry relative="1" as="geometry" />
        </mxCell>
        <mxCell id="m-NyeYcFWqAB6fJ0VtxW-31" value="Yes" style="edgeLabel;html=1;align=center;verticalAlign=middle;resizable=0;points=[];" parent="m-NyeYcFWqAB6fJ0VtxW-28" vertex="1" connectable="0">
          <mxGeometry x="-0.1667" y="1" relative="1" as="geometry">
            <mxPoint as="offset" />
          </mxGeometry>
        </mxCell>
        <mxCell id="m-NyeYcFWqAB6fJ0VtxW-16" value="回答五題了嗎" style="rhombus;whiteSpace=wrap;html=1;rounded=0;" parent="1" vertex="1">
          <mxGeometry x="1200" y="420" width="120" height="120" as="geometry" />
        </mxCell>
        <mxCell id="m-NyeYcFWqAB6fJ0VtxW-21" value="" style="edgeStyle=orthogonalEdgeStyle;rounded=0;orthogonalLoop=1;jettySize=auto;html=1;" parent="1" source="m-NyeYcFWqAB6fJ0VtxW-18" target="m-NyeYcFWqAB6fJ0VtxW-20" edge="1">
          <mxGeometry relative="1" as="geometry" />
        </mxCell>
        <mxCell id="m-NyeYcFWqAB6fJ0VtxW-18" value="系統出題" style="whiteSpace=wrap;html=1;rounded=0;" parent="1" vertex="1">
          <mxGeometry x="1200" y="650" width="120" height="60" as="geometry" />
        </mxCell>
        <mxCell id="qkZWodTD9YwXXFbHhhg--9" value="" style="edgeStyle=orthogonalEdgeStyle;rounded=0;orthogonalLoop=1;jettySize=auto;html=1;" parent="1" source="m-NyeYcFWqAB6fJ0VtxW-20" target="qkZWodTD9YwXXFbHhhg--8" edge="1">
          <mxGeometry relative="1" as="geometry" />
        </mxCell>
        <mxCell id="m-NyeYcFWqAB6fJ0VtxW-20" value="隊員答題" style="whiteSpace=wrap;html=1;rounded=0;" parent="1" vertex="1">
          <mxGeometry x="1400" y="650" width="120" height="60" as="geometry" />
        </mxCell>
        <mxCell id="m-NyeYcFWqAB6fJ0VtxW-26" style="edgeStyle=orthogonalEdgeStyle;rounded=0;orthogonalLoop=1;jettySize=auto;html=1;entryX=0.5;entryY=0;entryDx=0;entryDy=0;exitX=1;exitY=0.5;exitDx=0;exitDy=0;" parent="1" source="m-NyeYcFWqAB6fJ0VtxW-22" target="m-NyeYcFWqAB6fJ0VtxW-16" edge="1">
          <mxGeometry relative="1" as="geometry">
            <Array as="points">
              <mxPoint x="1980" y="680" />
              <mxPoint x="1980" y="360" />
              <mxPoint x="1260" y="360" />
            </Array>
          </mxGeometry>
        </mxCell>
        <mxCell id="m-NyeYcFWqAB6fJ0VtxW-22" value="主持人解析" style="whiteSpace=wrap;html=1;rounded=0;" parent="1" vertex="1">
          <mxGeometry x="1800" y="650" width="120" height="60" as="geometry" />
        </mxCell>
        <mxCell id="m-NyeYcFWqAB6fJ0VtxW-30" value="" style="edgeStyle=orthogonalEdgeStyle;rounded=0;orthogonalLoop=1;jettySize=auto;html=1;" parent="1" source="m-NyeYcFWqAB6fJ0VtxW-27" target="m-NyeYcFWqAB6fJ0VtxW-29" edge="1">
          <mxGeometry relative="1" as="geometry" />
        </mxCell>
        <mxCell id="m-NyeYcFWqAB6fJ0VtxW-27" value="隊員抽獎" style="whiteSpace=wrap;html=1;rounded=0;" parent="1" vertex="1">
          <mxGeometry x="1400" y="450" width="120" height="60" as="geometry" />
        </mxCell>
        <mxCell id="m-NyeYcFWqAB6fJ0VtxW-35" style="edgeStyle=orthogonalEdgeStyle;rounded=0;orthogonalLoop=1;jettySize=auto;html=1;entryX=0.5;entryY=0;entryDx=0;entryDy=0;" parent="1" source="m-NyeYcFWqAB6fJ0VtxW-29" target="m-NyeYcFWqAB6fJ0VtxW-4" edge="1">
          <mxGeometry relative="1" as="geometry">
            <Array as="points">
              <mxPoint x="1830" y="480" />
              <mxPoint x="1830" y="130" />
              <mxPoint x="840" y="130" />
            </Array>
          </mxGeometry>
        </mxCell>
        <mxCell id="m-NyeYcFWqAB6fJ0VtxW-29" value="結算當下成績" style="whiteSpace=wrap;html=1;rounded=0;" parent="1" vertex="1">
          <mxGeometry x="1600" y="450" width="120" height="60" as="geometry" />
        </mxCell>
        <mxCell id="qkZWodTD9YwXXFbHhhg--16" value="" style="edgeStyle=orthogonalEdgeStyle;rounded=0;orthogonalLoop=1;jettySize=auto;html=1;" parent="1" source="m-NyeYcFWqAB6fJ0VtxW-37" target="qkZWodTD9YwXXFbHhhg--15" edge="1">
          <mxGeometry relative="1" as="geometry" />
        </mxCell>
        <mxCell id="m-NyeYcFWqAB6fJ0VtxW-37" value="花絮" style="whiteSpace=wrap;html=1;rounded=0;" parent="1" vertex="1">
          <mxGeometry x="1400" y="230" width="120" height="60" as="geometry" />
        </mxCell>
        <mxCell id="qkZWodTD9YwXXFbHhhg--3" value="" style="edgeStyle=orthogonalEdgeStyle;rounded=0;orthogonalLoop=1;jettySize=auto;html=1;" parent="1" source="qkZWodTD9YwXXFbHhhg--1" target="m-NyeYcFWqAB6fJ0VtxW-1" edge="1">
          <mxGeometry relative="1" as="geometry" />
        </mxCell>
        <mxCell id="qkZWodTD9YwXXFbHhhg--1" value="前導劇情" style="whiteSpace=wrap;html=1;rounded=0;" parent="1" vertex="1">
          <mxGeometry x="150" y="230" width="120" height="60" as="geometry" />
        </mxCell>
        <mxCell id="qkZWodTD9YwXXFbHhhg--4" value="/show-intro" style="ellipse;shape=cloud;whiteSpace=wrap;html=1;fillColor=#ffe6cc;strokeColor=#d79b00;" parent="1" vertex="1">
          <mxGeometry x="150" y="320" width="120" height="80" as="geometry" />
        </mxCell>
        <mxCell id="qkZWodTD9YwXXFbHhhg--5" value="ES_This Day Will Be Remembered.mp3" style="ellipse;shape=cloud;whiteSpace=wrap;html=1;fillColor=#dae8fc;strokeColor=#6c8ebf;" parent="1" vertex="1">
          <mxGeometry x="150" y="450" width="120" height="80" as="geometry" />
        </mxCell>
        <mxCell id="qkZWodTD9YwXXFbHhhg--7" value="/show-demo" style="ellipse;shape=cloud;whiteSpace=wrap;html=1;fillColor=#ffe6cc;strokeColor=#d79b00;" parent="1" vertex="1">
          <mxGeometry x="550" y="320" width="120" height="80" as="geometry" />
        </mxCell>
        <mxCell id="qkZWodTD9YwXXFbHhhg--10" value="" style="edgeStyle=orthogonalEdgeStyle;rounded=0;orthogonalLoop=1;jettySize=auto;html=1;" parent="1" source="qkZWodTD9YwXXFbHhhg--8" target="m-NyeYcFWqAB6fJ0VtxW-22" edge="1">
          <mxGeometry relative="1" as="geometry" />
        </mxCell>
        <mxCell id="qkZWodTD9YwXXFbHhhg--8" value="公布答題統計" style="whiteSpace=wrap;html=1;rounded=0;" parent="1" vertex="1">
          <mxGeometry x="1600" y="650" width="120" height="60" as="geometry" />
        </mxCell>
        <mxCell id="qkZWodTD9YwXXFbHhhg--11" value="ES_The Return Journey.mp3" style="ellipse;shape=cloud;whiteSpace=wrap;html=1;fillColor=#dae8fc;strokeColor=#6c8ebf;" parent="1" vertex="1">
          <mxGeometry x="1200" y="870" width="120" height="80" as="geometry" />
        </mxCell>
        <mxCell id="qkZWodTD9YwXXFbHhhg--15" value="結束" style="ellipse;whiteSpace=wrap;html=1;rounded=0;" parent="1" vertex="1">
          <mxGeometry x="1620" y="220" width="80" height="80" as="geometry" />
        </mxCell>
        <mxCell id="WOPA3h9E8CvAgLq2pJQE-1" value="/show-category" style="ellipse;shape=cloud;whiteSpace=wrap;html=1;fillColor=#ffe6cc;strokeColor=#d79b00;" parent="1" vertex="1">
          <mxGeometry x="980" y="530" width="120" height="80" as="geometry" />
        </mxCell>
        <mxCell id="WOPA3h9E8CvAgLq2pJQE-2" value="/show-question" style="ellipse;shape=cloud;whiteSpace=wrap;html=1;fillColor=#ffe6cc;strokeColor=#d79b00;" parent="1" vertex="1">
          <mxGeometry x="1200" y="730" width="120" height="80" as="geometry" />
        </mxCell>
        <mxCell id="WOPA3h9E8CvAgLq2pJQE-3" value="/show-barchart" style="ellipse;shape=cloud;whiteSpace=wrap;html=1;fillColor=#ffe6cc;strokeColor=#d79b00;" parent="1" vertex="1">
          <mxGeometry x="1600" y="730" width="120" height="80" as="geometry" />
        </mxCell>
        <mxCell id="WOPA3h9E8CvAgLq2pJQE-4" value="/show-explain" style="ellipse;shape=cloud;whiteSpace=wrap;html=1;fillColor=#ffe6cc;strokeColor=#d79b00;" parent="1" vertex="1">
          <mxGeometry x="1800" y="730" width="120" height="80" as="geometry" />
        </mxCell>
        <mxCell id="WOPA3h9E8CvAgLq2pJQE-5" value="/show-minigame" style="ellipse;shape=cloud;whiteSpace=wrap;html=1;fillColor=#ffe6cc;strokeColor=#d79b00;" parent="1" vertex="1">
          <mxGeometry x="1400" y="530" width="120" height="80" as="geometry" />
        </mxCell>
        <mxCell id="WOPA3h9E8CvAgLq2pJQE-6" value="/show-overall" style="ellipse;shape=cloud;whiteSpace=wrap;html=1;" parent="1" vertex="1">
          <mxGeometry x="1600" y="530" width="120" height="80" as="geometry" />
        </mxCell>
        <mxCell id="WOPA3h9E8CvAgLq2pJQE-7" value="/show-overall" style="ellipse;shape=cloud;whiteSpace=wrap;html=1;" parent="1" vertex="1">
          <mxGeometry x="1000" y="140" width="120" height="80" as="geometry" />
        </mxCell>
        <mxCell id="WOPA3h9E8CvAgLq2pJQE-8" value="/show-event" style="ellipse;shape=cloud;whiteSpace=wrap;html=1;" parent="1" vertex="1">
          <mxGeometry x="1200" y="140" width="120" height="80" as="geometry" />
        </mxCell>
        <mxCell id="WOPA3h9E8CvAgLq2pJQE-9" value="/show-outro" style="ellipse;shape=cloud;whiteSpace=wrap;html=1;fillColor=#ffe6cc;strokeColor=#d79b00;" parent="1" vertex="1">
          <mxGeometry x="1400" y="140" width="120" height="80" as="geometry" />
        </mxCell>
        <mxCell id="WOPA3h9E8CvAgLq2pJQE-10" value="/show-waiting" style="ellipse;shape=cloud;whiteSpace=wrap;html=1;fillColor=#ffe6cc;strokeColor=#d79b00;" parent="1" vertex="1">
          <mxGeometry x="354" y="320" width="120" height="80" as="geometry" />
        </mxCell>
        <mxCell id="WOPA3h9E8CvAgLq2pJQE-11" value="/show-question" style="swimlane;whiteSpace=wrap;html=1;" parent="1" vertex="1">
          <mxGeometry x="-10" y="760" width="800" height="600" as="geometry" />
        </mxCell>
        <mxCell id="WOPA3h9E8CvAgLq2pJQE-16" value="&lt;font style=&quot;font-size: 28px;&quot;&gt;&lt;span style=&quot;color: rgb(4, 30, 73); font-family: Roboto, &amp;quot;Helvetica Neue&amp;quot;, sans-serif; font-style: normal; font-variant-ligatures: normal; font-variant-caps: normal; font-weight: 400; letter-spacing: normal; orphans: 2; text-align: start; text-indent: 0px; text-transform: none; widows: 2; word-spacing: 0px; -webkit-text-stroke-width: 0px; white-space: normal; background-color: rgb(255, 255, 255); text-decoration-thickness: initial; text-decoration-style: initial; text-decoration-color: initial; float: none; display: inline !important;&quot;&gt;工程圈&lt;/span&gt;&lt;/font&gt;" style="rounded=1;whiteSpace=wrap;html=1;fillColor=#dae8fc;strokeColor=#6c8ebf;" parent="WOPA3h9E8CvAgLq2pJQE-11" vertex="1">
          <mxGeometry x="240" y="380" width="160" height="160" as="geometry" />
        </mxCell>
        <mxCell id="WOPA3h9E8CvAgLq2pJQE-15" value="&lt;span style=&quot;color: rgb(4, 30, 73); font-family: Roboto, &amp;quot;Helvetica Neue&amp;quot;, sans-serif; text-align: start; background-color: rgb(255, 255, 255);&quot;&gt;&lt;font style=&quot;font-size: 28px;&quot;&gt;音樂圈&lt;/font&gt;&lt;/span&gt;" style="rounded=1;whiteSpace=wrap;html=1;fillColor=#d5e8d4;strokeColor=#82b366;" parent="WOPA3h9E8CvAgLq2pJQE-11" vertex="1">
          <mxGeometry x="60" y="380" width="160" height="160" as="geometry" />
        </mxCell>
        <mxCell id="WOPA3h9E8CvAgLq2pJQE-18" value="&lt;div style=&quot;align-items: flex-start; display: flex; flex: 1 1 auto; justify-content: flex-start; min-width: 0px; padding: 6px 0px; color: rgb(4, 30, 73); font-family: Roboto, &amp;quot;Helvetica Neue&amp;quot;, sans-serif; text-align: start; text-wrap: nowrap; background-color: rgb(255, 255, 255); font-size: 28px;&quot; class=&quot;database-key-value&quot;&gt;&lt;span style=&quot;line-height: 20px; color: var(--theme-color-fg-primary); display: inline-block; flex: 0 1 auto; min-width: 0px; pointer-events: none; text-wrap: wrap;&quot; class=&quot;database-leaf-value ng-star-inserted&quot;&gt;&lt;font style=&quot;font-size: 28px;&quot;&gt;請問小學堂大亂鬥最初是由哪一個團隊發起的？&lt;/font&gt;&lt;/span&gt;&lt;/div&gt;&lt;div style=&quot;align-items: flex-start; background-image: linear-gradient(to right, transparent 0, var(--theme-color-bg-hover) 12px); box-sizing: border-box; color: var(--theme-color-fg-secondary); display: flex; height: 1px; padding: 0px; position: absolute; right: 0px; top: 0px; border: 0px; clip: rect(0px, 0px, 0px, 0px); margin: 0px; overflow: hidden; width: 1px; outline: 0px; appearance: none; font-family: Roboto, &amp;quot;Helvetica Neue&amp;quot;, sans-serif; text-align: start; text-wrap: nowrap; background-color: rgb(255, 255, 255); font-size: 28px;&quot; class=&quot;database-buttons&quot;&gt;&lt;div style=&quot;height: 32px; display: flex; align-items: center;&quot; class=&quot;container&quot;&gt;&lt;div style=&quot;color: var(--theme-color-fg-tertiary); display: inline-block;&quot; class=&quot;database-type&quot;&gt;&lt;span style=&quot;&quot; class=&quot;ng-star-inserted&quot;&gt;&lt;font style=&quot;font-size: 28px;&quot;&gt;(字&lt;/font&gt;&lt;/span&gt;&lt;/div&gt;&lt;/div&gt;&lt;/div&gt;" style="rounded=1;whiteSpace=wrap;html=1;" parent="WOPA3h9E8CvAgLq2pJQE-11" vertex="1">
          <mxGeometry x="60" y="140" width="700" height="210" as="geometry" />
        </mxCell>
        <mxCell id="WOPA3h9E8CvAgLq2pJQE-20" value="&lt;span style=&quot;color: rgb(4, 30, 73); font-family: Roboto, &amp;quot;Helvetica Neue&amp;quot;, sans-serif; font-style: normal; font-variant-ligatures: normal; font-variant-caps: normal; font-weight: 400; letter-spacing: normal; orphans: 2; text-align: start; text-indent: 0px; text-transform: none; widows: 2; word-spacing: 0px; -webkit-text-stroke-width: 0px; white-space: normal; background-color: rgb(255, 255, 255); text-decoration-thickness: initial; text-decoration-style: initial; text-decoration-color: initial; float: none; display: inline !important;&quot;&gt;&lt;font style=&quot;font-size: 28px;&quot;&gt;醫療圈&lt;/font&gt;&lt;/span&gt;" style="rounded=1;whiteSpace=wrap;html=1;fillColor=#ffe6cc;strokeColor=#d79b00;" parent="WOPA3h9E8CvAgLq2pJQE-11" vertex="1">
          <mxGeometry x="420" y="380" width="160" height="160" as="geometry" />
        </mxCell>
        <mxCell id="WOPA3h9E8CvAgLq2pJQE-21" value="&lt;span style=&quot;color: rgb(4, 30, 73); font-family: Roboto, &amp;quot;Helvetica Neue&amp;quot;, sans-serif; font-size: 28px; font-style: normal; font-variant-ligatures: normal; font-variant-caps: normal; font-weight: 400; letter-spacing: normal; orphans: 2; text-align: start; text-indent: 0px; text-transform: none; widows: 2; word-spacing: 0px; -webkit-text-stroke-width: 0px; white-space: normal; background-color: rgb(255, 255, 255); text-decoration-thickness: initial; text-decoration-style: initial; text-decoration-color: initial; float: none; display: inline !important;&quot;&gt;教育圈&lt;/span&gt;" style="rounded=1;whiteSpace=wrap;html=1;fillColor=#e1d5e7;strokeColor=#9673a6;" parent="WOPA3h9E8CvAgLq2pJQE-11" vertex="1">
          <mxGeometry x="600" y="380" width="160" height="160" as="geometry" />
        </mxCell>
        <mxCell id="WOPA3h9E8CvAgLq2pJQE-22" value="&lt;font style=&quot;font-size: 20px;&quot;&gt;範例類&lt;/font&gt;" style="rounded=1;whiteSpace=wrap;html=1;" parent="WOPA3h9E8CvAgLq2pJQE-11" vertex="1">
          <mxGeometry x="60" y="50" width="160" height="60" as="geometry" />
        </mxCell>
        <mxCell id="WOPA3h9E8CvAgLq2pJQE-34" value="&lt;font style=&quot;font-size: 20px;&quot;&gt;第 1 題&lt;/font&gt;" style="rounded=1;whiteSpace=wrap;html=1;" parent="WOPA3h9E8CvAgLq2pJQE-11" vertex="1">
          <mxGeometry x="240" y="50" width="160" height="60" as="geometry" />
        </mxCell>
        <mxCell id="WOPA3h9E8CvAgLq2pJQE-23" value="/show-category" style="swimlane;whiteSpace=wrap;html=1;" parent="1" vertex="1">
          <mxGeometry y="1440" width="800" height="600" as="geometry" />
        </mxCell>
        <mxCell id="WOPA3h9E8CvAgLq2pJQE-24" value="&lt;font style=&quot;font-size: 28px;&quot;&gt;&lt;span style=&quot;color: rgb(4, 30, 73); font-family: Roboto, &amp;quot;Helvetica Neue&amp;quot;, sans-serif; font-style: normal; font-variant-ligatures: normal; font-variant-caps: normal; font-weight: 400; letter-spacing: normal; orphans: 2; text-align: start; text-indent: 0px; text-transform: none; widows: 2; word-spacing: 0px; -webkit-text-stroke-width: 0px; white-space: normal; background-color: rgb(255, 255, 255); text-decoration-thickness: initial; text-decoration-style: initial; text-decoration-color: initial; float: none; display: inline !important;&quot;&gt;歷史&lt;/span&gt;&lt;/font&gt;" style="rounded=1;whiteSpace=wrap;html=1;fillColor=#f5f5f5;fontColor=#333333;strokeColor=#666666;" parent="WOPA3h9E8CvAgLq2pJQE-23" vertex="1">
          <mxGeometry x="230" y="339" width="160" height="160" as="geometry" />
        </mxCell>
        <mxCell id="WOPA3h9E8CvAgLq2pJQE-25" value="&lt;span style=&quot;color: rgb(4, 30, 73); font-family: Roboto, &amp;quot;Helvetica Neue&amp;quot;, sans-serif; text-align: start; background-color: rgb(255, 255, 255);&quot;&gt;&lt;font style=&quot;font-size: 28px;&quot;&gt;化學&lt;/font&gt;&lt;/span&gt;" style="rounded=1;whiteSpace=wrap;html=1;fillColor=#f5f5f5;fontColor=#333333;strokeColor=#666666;" parent="WOPA3h9E8CvAgLq2pJQE-23" vertex="1">
          <mxGeometry x="50" y="339" width="160" height="160" as="geometry" />
        </mxCell>
        <mxCell id="WOPA3h9E8CvAgLq2pJQE-27" value="&lt;span style=&quot;color: rgb(4, 30, 73); font-family: Roboto, &amp;quot;Helvetica Neue&amp;quot;, sans-serif; font-style: normal; font-variant-ligatures: normal; font-variant-caps: normal; font-weight: 400; letter-spacing: normal; orphans: 2; text-align: start; text-indent: 0px; text-transform: none; widows: 2; word-spacing: 0px; -webkit-text-stroke-width: 0px; white-space: normal; background-color: rgb(255, 255, 255); text-decoration-thickness: initial; text-decoration-style: initial; text-decoration-color: initial; float: none; display: inline !important;&quot;&gt;&lt;font style=&quot;font-size: 28px;&quot;&gt;地理&lt;/font&gt;&lt;/span&gt;" style="rounded=1;whiteSpace=wrap;html=1;fillColor=#f5f5f5;fontColor=#333333;strokeColor=#666666;" parent="WOPA3h9E8CvAgLq2pJQE-23" vertex="1">
          <mxGeometry x="410" y="339" width="160" height="160" as="geometry" />
        </mxCell>
        <mxCell id="WOPA3h9E8CvAgLq2pJQE-28" value="&lt;span style=&quot;color: rgb(4, 30, 73); font-family: Roboto, &amp;quot;Helvetica Neue&amp;quot;, sans-serif; font-size: 28px; font-style: normal; font-variant-ligatures: normal; font-variant-caps: normal; font-weight: 400; letter-spacing: normal; orphans: 2; text-align: start; text-indent: 0px; text-transform: none; widows: 2; word-spacing: 0px; -webkit-text-stroke-width: 0px; white-space: normal; background-color: rgb(255, 255, 255); text-decoration-thickness: initial; text-decoration-style: initial; text-decoration-color: initial; float: none; display: inline !important;&quot;&gt;公民&lt;/span&gt;" style="rounded=1;whiteSpace=wrap;html=1;fillColor=#f5f5f5;fontColor=#333333;strokeColor=#666666;" parent="WOPA3h9E8CvAgLq2pJQE-23" vertex="1">
          <mxGeometry x="590" y="339" width="160" height="160" as="geometry" />
        </mxCell>
        <mxCell id="WOPA3h9E8CvAgLq2pJQE-30" value="&lt;font style=&quot;font-size: 28px;&quot;&gt;&lt;span style=&quot;color: rgb(4, 30, 73); font-family: Roboto, &amp;quot;Helvetica Neue&amp;quot;, sans-serif; font-style: normal; font-variant-ligatures: normal; font-variant-caps: normal; font-weight: 400; letter-spacing: normal; orphans: 2; text-align: start; text-indent: 0px; text-transform: none; widows: 2; word-spacing: 0px; -webkit-text-stroke-width: 0px; white-space: normal; background-color: rgb(255, 255, 255); text-decoration-thickness: initial; text-decoration-style: initial; text-decoration-color: initial; float: none; display: inline !important;&quot;&gt;數學&lt;/span&gt;&lt;/font&gt;" style="rounded=1;whiteSpace=wrap;html=1;fillColor=#f5f5f5;fontColor=#333333;strokeColor=#666666;" parent="WOPA3h9E8CvAgLq2pJQE-23" vertex="1">
          <mxGeometry x="230" y="129" width="160" height="160" as="geometry" />
        </mxCell>
        <mxCell id="WOPA3h9E8CvAgLq2pJQE-31" value="&lt;div style=&quot;text-align: start;&quot;&gt;&lt;font face=&quot;Roboto, Helvetica Neue, sans-serif&quot; color=&quot;#041e49&quot;&gt;&lt;span style=&quot;font-size: 28px; background-color: rgb(255, 255, 255);&quot;&gt;國文&lt;/span&gt;&lt;/font&gt;&lt;/div&gt;" style="rounded=1;whiteSpace=wrap;html=1;direction=north;" parent="WOPA3h9E8CvAgLq2pJQE-23" vertex="1">
          <mxGeometry x="50" y="129" width="160" height="160" as="geometry" />
        </mxCell>
        <mxCell id="WOPA3h9E8CvAgLq2pJQE-32" value="&lt;span style=&quot;color: rgb(4, 30, 73); font-family: Roboto, &amp;quot;Helvetica Neue&amp;quot;, sans-serif; font-style: normal; font-variant-ligatures: normal; font-variant-caps: normal; font-weight: 400; letter-spacing: normal; orphans: 2; text-align: start; text-indent: 0px; text-transform: none; widows: 2; word-spacing: 0px; -webkit-text-stroke-width: 0px; white-space: normal; background-color: rgb(255, 255, 255); text-decoration-thickness: initial; text-decoration-style: initial; text-decoration-color: initial; float: none; display: inline !important;&quot;&gt;&lt;font style=&quot;font-size: 28px;&quot;&gt;英文&lt;/font&gt;&lt;/span&gt;" style="rounded=1;whiteSpace=wrap;html=1;" parent="WOPA3h9E8CvAgLq2pJQE-23" vertex="1">
          <mxGeometry x="410" y="129" width="160" height="160" as="geometry" />
        </mxCell>
        <mxCell id="WOPA3h9E8CvAgLq2pJQE-33" value="&lt;span style=&quot;color: rgb(4, 30, 73); font-family: Roboto, &amp;quot;Helvetica Neue&amp;quot;, sans-serif; font-size: 28px; font-style: normal; font-variant-ligatures: normal; font-variant-caps: normal; font-weight: 400; letter-spacing: normal; orphans: 2; text-align: start; text-indent: 0px; text-transform: none; widows: 2; word-spacing: 0px; -webkit-text-stroke-width: 0px; white-space: normal; background-color: rgb(255, 255, 255); text-decoration-thickness: initial; text-decoration-style: initial; text-decoration-color: initial; float: none; display: inline !important;&quot;&gt;物理&lt;/span&gt;" style="rounded=1;whiteSpace=wrap;html=1;fillColor=#f5f5f5;fontColor=#333333;strokeColor=#666666;" parent="WOPA3h9E8CvAgLq2pJQE-23" vertex="1">
          <mxGeometry x="590" y="129" width="160" height="160" as="geometry" />
        </mxCell>
        <mxCell id="WOPA3h9E8CvAgLq2pJQE-35" value="/show-barchart" style="swimlane;whiteSpace=wrap;html=1;" parent="1" vertex="1">
          <mxGeometry x="1040" y="1120" width="800" height="600" as="geometry" />
        </mxCell>
        <mxCell id="WOPA3h9E8CvAgLq2pJQE-36" value="&lt;font style=&quot;font-size: 28px;&quot;&gt;&lt;span style=&quot;color: rgb(4, 30, 73); font-family: Roboto, &amp;quot;Helvetica Neue&amp;quot;, sans-serif; font-style: normal; font-variant-ligatures: normal; font-variant-caps: normal; font-weight: 400; letter-spacing: normal; orphans: 2; text-align: start; text-indent: 0px; text-transform: none; widows: 2; word-spacing: 0px; -webkit-text-stroke-width: 0px; white-space: normal; background-color: rgb(255, 255, 255); text-decoration-thickness: initial; text-decoration-style: initial; text-decoration-color: initial; float: none; display: inline !important;&quot;&gt;工程圈&lt;/span&gt;&lt;/font&gt;" style="rounded=1;whiteSpace=wrap;html=1;fillColor=#dae8fc;strokeColor=#6c8ebf;" parent="WOPA3h9E8CvAgLq2pJQE-35" vertex="1">
          <mxGeometry x="240" y="380" width="160" height="160" as="geometry" />
        </mxCell>
        <mxCell id="WOPA3h9E8CvAgLq2pJQE-37" value="&lt;span style=&quot;color: rgb(4, 30, 73); font-family: Roboto, &amp;quot;Helvetica Neue&amp;quot;, sans-serif; text-align: start; background-color: rgb(255, 255, 255);&quot;&gt;&lt;font style=&quot;font-size: 28px;&quot;&gt;音樂圈&lt;/font&gt;&lt;/span&gt;" style="rounded=1;whiteSpace=wrap;html=1;fillColor=#d5e8d4;strokeColor=#82b366;" parent="WOPA3h9E8CvAgLq2pJQE-35" vertex="1">
          <mxGeometry x="60" y="380" width="160" height="160" as="geometry" />
        </mxCell>
        <mxCell id="WOPA3h9E8CvAgLq2pJQE-38" value="&lt;div style=&quot;align-items: flex-start; display: flex; flex: 1 1 auto; justify-content: flex-start; min-width: 0px; padding: 6px 0px; color: rgb(4, 30, 73); font-family: Roboto, &amp;quot;Helvetica Neue&amp;quot;, sans-serif; text-align: start; text-wrap: nowrap; background-color: rgb(255, 255, 255); font-size: 28px;&quot; class=&quot;database-key-value&quot;&gt;&lt;span style=&quot;line-height: 20px; color: var(--theme-color-fg-primary); display: inline-block; flex: 0 1 auto; min-width: 0px; pointer-events: none; text-wrap: wrap;&quot; class=&quot;database-leaf-value ng-star-inserted&quot;&gt;&lt;font style=&quot;font-size: 28px;&quot;&gt;請問小學堂大亂鬥最初是由哪一個團隊發起的？&lt;/font&gt;&lt;/span&gt;&lt;/div&gt;&lt;div style=&quot;align-items: flex-start; background-image: linear-gradient(to right, transparent 0, var(--theme-color-bg-hover) 12px); box-sizing: border-box; color: var(--theme-color-fg-secondary); display: flex; height: 1px; padding: 0px; position: absolute; right: 0px; top: 0px; border: 0px; clip: rect(0px, 0px, 0px, 0px); margin: 0px; overflow: hidden; width: 1px; outline: 0px; appearance: none; font-family: Roboto, &amp;quot;Helvetica Neue&amp;quot;, sans-serif; text-align: start; text-wrap: nowrap; background-color: rgb(255, 255, 255); font-size: 28px;&quot; class=&quot;database-buttons&quot;&gt;&lt;div style=&quot;height: 32px; display: flex; align-items: center;&quot; class=&quot;container&quot;&gt;&lt;div style=&quot;color: var(--theme-color-fg-tertiary); display: inline-block;&quot; class=&quot;database-type&quot;&gt;&lt;span style=&quot;&quot; class=&quot;ng-star-inserted&quot;&gt;&lt;font style=&quot;font-size: 28px;&quot;&gt;(字&lt;/font&gt;&lt;/span&gt;&lt;/div&gt;&lt;/div&gt;&lt;/div&gt;" style="rounded=1;whiteSpace=wrap;html=1;" parent="WOPA3h9E8CvAgLq2pJQE-35" vertex="1">
          <mxGeometry x="60" y="140" width="700" height="210" as="geometry" />
        </mxCell>
        <mxCell id="WOPA3h9E8CvAgLq2pJQE-39" value="&lt;span style=&quot;color: rgb(4, 30, 73); font-family: Roboto, &amp;quot;Helvetica Neue&amp;quot;, sans-serif; font-style: normal; font-variant-ligatures: normal; font-variant-caps: normal; font-weight: 400; letter-spacing: normal; orphans: 2; text-align: start; text-indent: 0px; text-transform: none; widows: 2; word-spacing: 0px; -webkit-text-stroke-width: 0px; white-space: normal; background-color: rgb(255, 255, 255); text-decoration-thickness: initial; text-decoration-style: initial; text-decoration-color: initial; float: none; display: inline !important;&quot;&gt;&lt;font style=&quot;font-size: 28px;&quot;&gt;醫療圈&lt;/font&gt;&lt;/span&gt;" style="rounded=1;whiteSpace=wrap;html=1;fillColor=#ffe6cc;strokeColor=#d79b00;" parent="WOPA3h9E8CvAgLq2pJQE-35" vertex="1">
          <mxGeometry x="420" y="380" width="160" height="160" as="geometry" />
        </mxCell>
        <mxCell id="WOPA3h9E8CvAgLq2pJQE-40" value="&lt;span style=&quot;color: rgb(4, 30, 73); font-family: Roboto, &amp;quot;Helvetica Neue&amp;quot;, sans-serif; font-size: 28px; font-style: normal; font-variant-ligatures: normal; font-variant-caps: normal; font-weight: 400; letter-spacing: normal; orphans: 2; text-align: start; text-indent: 0px; text-transform: none; widows: 2; word-spacing: 0px; -webkit-text-stroke-width: 0px; white-space: normal; background-color: rgb(255, 255, 255); text-decoration-thickness: initial; text-decoration-style: initial; text-decoration-color: initial; float: none; display: inline !important;&quot;&gt;教育圈&lt;/span&gt;" style="rounded=1;whiteSpace=wrap;html=1;fillColor=#e1d5e7;strokeColor=#9673a6;" parent="WOPA3h9E8CvAgLq2pJQE-35" vertex="1">
          <mxGeometry x="600" y="380" width="160" height="160" as="geometry" />
        </mxCell>
        <mxCell id="WOPA3h9E8CvAgLq2pJQE-41" value="&lt;font style=&quot;font-size: 20px;&quot;&gt;範例類&lt;/font&gt;" style="rounded=1;whiteSpace=wrap;html=1;" parent="WOPA3h9E8CvAgLq2pJQE-35" vertex="1">
          <mxGeometry x="60" y="50" width="160" height="60" as="geometry" />
        </mxCell>
        <mxCell id="WOPA3h9E8CvAgLq2pJQE-42" value="&lt;font style=&quot;font-size: 20px;&quot;&gt;第 1 題&lt;/font&gt;" style="rounded=1;whiteSpace=wrap;html=1;" parent="WOPA3h9E8CvAgLq2pJQE-35" vertex="1">
          <mxGeometry x="240" y="50" width="160" height="60" as="geometry" />
        </mxCell>
        <mxCell id="WOPA3h9E8CvAgLq2pJQE-43" value="&lt;font style=&quot;font-size: 20px;&quot;&gt;35&lt;/font&gt;" style="ellipse;whiteSpace=wrap;html=1;aspect=fixed;fillColor=#f5f5f5;fontColor=#333333;strokeColor=#666666;" parent="WOPA3h9E8CvAgLq2pJQE-35" vertex="1">
          <mxGeometry x="115" y="480" width="50" height="50" as="geometry" />
        </mxCell>
        <mxCell id="WOPA3h9E8CvAgLq2pJQE-44" value="&lt;font style=&quot;font-size: 20px;&quot;&gt;27&lt;/font&gt;" style="ellipse;whiteSpace=wrap;html=1;aspect=fixed;fillColor=#f5f5f5;fontColor=#333333;strokeColor=#666666;" parent="WOPA3h9E8CvAgLq2pJQE-35" vertex="1">
          <mxGeometry x="295" y="480" width="50" height="50" as="geometry" />
        </mxCell>
        <mxCell id="WOPA3h9E8CvAgLq2pJQE-45" value="&lt;font style=&quot;font-size: 20px;&quot;&gt;12&lt;/font&gt;" style="ellipse;whiteSpace=wrap;html=1;aspect=fixed;fillColor=#f5f5f5;fontColor=#333333;strokeColor=#666666;" parent="WOPA3h9E8CvAgLq2pJQE-35" vertex="1">
          <mxGeometry x="475" y="480" width="50" height="50" as="geometry" />
        </mxCell>
        <mxCell id="WOPA3h9E8CvAgLq2pJQE-46" value="&lt;font style=&quot;font-size: 20px;&quot;&gt;74&lt;/font&gt;" style="ellipse;whiteSpace=wrap;html=1;aspect=fixed;fillColor=#f5f5f5;fontColor=#333333;strokeColor=#666666;" parent="WOPA3h9E8CvAgLq2pJQE-35" vertex="1">
          <mxGeometry x="655" y="480" width="50" height="50" as="geometry" />
        </mxCell>
        <mxCell id="WOPA3h9E8CvAgLq2pJQE-47" value="/show-explain" style="swimlane;whiteSpace=wrap;html=1;" parent="1" vertex="1">
          <mxGeometry x="1920" y="1120" width="800" height="600" as="geometry" />
        </mxCell>
        <mxCell id="WOPA3h9E8CvAgLq2pJQE-48" value="&lt;font style=&quot;font-size: 28px;&quot;&gt;&lt;span style=&quot;color: rgb(4, 30, 73); font-family: Roboto, &amp;quot;Helvetica Neue&amp;quot;, sans-serif; font-style: normal; font-variant-ligatures: normal; font-variant-caps: normal; font-weight: 400; letter-spacing: normal; orphans: 2; text-align: start; text-indent: 0px; text-transform: none; widows: 2; word-spacing: 0px; -webkit-text-stroke-width: 0px; white-space: normal; background-color: rgb(255, 255, 255); text-decoration-thickness: initial; text-decoration-style: initial; text-decoration-color: initial; float: none; display: inline !important;&quot;&gt;工程圈&lt;/span&gt;&lt;/font&gt;" style="rounded=1;whiteSpace=wrap;html=1;fillColor=#dae8fc;strokeColor=#6c8ebf;" parent="WOPA3h9E8CvAgLq2pJQE-47" vertex="1">
          <mxGeometry x="240" y="380" width="160" height="160" as="geometry" />
        </mxCell>
        <mxCell id="WOPA3h9E8CvAgLq2pJQE-49" value="&lt;span style=&quot;color: rgb(4, 30, 73); font-family: Roboto, &amp;quot;Helvetica Neue&amp;quot;, sans-serif; text-align: start; background-color: rgb(255, 255, 255);&quot;&gt;&lt;font style=&quot;font-size: 28px;&quot;&gt;音樂圈&lt;/font&gt;&lt;/span&gt;" style="rounded=1;whiteSpace=wrap;html=1;fillColor=#f5f5f5;fontColor=#333333;strokeColor=#666666;" parent="WOPA3h9E8CvAgLq2pJQE-47" vertex="1">
          <mxGeometry x="60" y="380" width="160" height="160" as="geometry" />
        </mxCell>
        <mxCell id="WOPA3h9E8CvAgLq2pJQE-50" value="&lt;div style=&quot;align-items: flex-start; display: flex; flex: 1 1 auto; justify-content: flex-start; min-width: 0px; padding: 6px 0px; color: rgb(4, 30, 73); font-family: Roboto, &amp;quot;Helvetica Neue&amp;quot;, sans-serif; text-align: start; text-wrap: nowrap; background-color: rgb(255, 255, 255); font-size: 28px;&quot; class=&quot;database-key-value&quot;&gt;&lt;span style=&quot;line-height: 20px; color: var(--theme-color-fg-primary); display: inline-block; flex: 0 1 auto; min-width: 0px; pointer-events: none; text-wrap: wrap;&quot; class=&quot;database-leaf-value ng-star-inserted&quot;&gt;&lt;font style=&quot;font-size: 28px;&quot;&gt;請問小學堂大亂鬥最初是由哪一個團隊發起的？&lt;/font&gt;&lt;/span&gt;&lt;/div&gt;&lt;div style=&quot;align-items: flex-start; background-image: linear-gradient(to right, transparent 0, var(--theme-color-bg-hover) 12px); box-sizing: border-box; color: var(--theme-color-fg-secondary); display: flex; height: 1px; padding: 0px; position: absolute; right: 0px; top: 0px; border: 0px; clip: rect(0px, 0px, 0px, 0px); margin: 0px; overflow: hidden; width: 1px; outline: 0px; appearance: none; font-family: Roboto, &amp;quot;Helvetica Neue&amp;quot;, sans-serif; text-align: start; text-wrap: nowrap; background-color: rgb(255, 255, 255); font-size: 28px;&quot; class=&quot;database-buttons&quot;&gt;&lt;div style=&quot;height: 32px; display: flex; align-items: center;&quot; class=&quot;container&quot;&gt;&lt;div style=&quot;color: var(--theme-color-fg-tertiary); display: inline-block;&quot; class=&quot;database-type&quot;&gt;&lt;span style=&quot;&quot; class=&quot;ng-star-inserted&quot;&gt;&lt;font style=&quot;font-size: 28px;&quot;&gt;(字&lt;/font&gt;&lt;/span&gt;&lt;/div&gt;&lt;/div&gt;&lt;/div&gt;" style="rounded=1;whiteSpace=wrap;html=1;" parent="WOPA3h9E8CvAgLq2pJQE-47" vertex="1">
          <mxGeometry x="60" y="140" width="700" height="70" as="geometry" />
        </mxCell>
        <mxCell id="WOPA3h9E8CvAgLq2pJQE-51" value="&lt;span style=&quot;color: rgb(4, 30, 73); font-family: Roboto, &amp;quot;Helvetica Neue&amp;quot;, sans-serif; font-style: normal; font-variant-ligatures: normal; font-variant-caps: normal; font-weight: 400; letter-spacing: normal; orphans: 2; text-align: start; text-indent: 0px; text-transform: none; widows: 2; word-spacing: 0px; -webkit-text-stroke-width: 0px; white-space: normal; background-color: rgb(255, 255, 255); text-decoration-thickness: initial; text-decoration-style: initial; text-decoration-color: initial; float: none; display: inline !important;&quot;&gt;&lt;font style=&quot;font-size: 28px;&quot;&gt;醫療圈&lt;/font&gt;&lt;/span&gt;" style="rounded=1;whiteSpace=wrap;html=1;fillColor=#f5f5f5;fontColor=#333333;strokeColor=#666666;" parent="WOPA3h9E8CvAgLq2pJQE-47" vertex="1">
          <mxGeometry x="420" y="380" width="160" height="160" as="geometry" />
        </mxCell>
        <mxCell id="WOPA3h9E8CvAgLq2pJQE-52" value="&lt;span style=&quot;color: rgb(4, 30, 73); font-family: Roboto, &amp;quot;Helvetica Neue&amp;quot;, sans-serif; font-size: 28px; font-style: normal; font-variant-ligatures: normal; font-variant-caps: normal; font-weight: 400; letter-spacing: normal; orphans: 2; text-align: start; text-indent: 0px; text-transform: none; widows: 2; word-spacing: 0px; -webkit-text-stroke-width: 0px; white-space: normal; background-color: rgb(255, 255, 255); text-decoration-thickness: initial; text-decoration-style: initial; text-decoration-color: initial; float: none; display: inline !important;&quot;&gt;教育圈&lt;/span&gt;" style="rounded=1;whiteSpace=wrap;html=1;fillColor=#f5f5f5;fontColor=#333333;strokeColor=#666666;" parent="WOPA3h9E8CvAgLq2pJQE-47" vertex="1">
          <mxGeometry x="600" y="380" width="160" height="160" as="geometry" />
        </mxCell>
        <mxCell id="WOPA3h9E8CvAgLq2pJQE-53" value="&lt;font style=&quot;font-size: 20px;&quot;&gt;範例類&lt;/font&gt;" style="rounded=1;whiteSpace=wrap;html=1;" parent="WOPA3h9E8CvAgLq2pJQE-47" vertex="1">
          <mxGeometry x="60" y="50" width="160" height="60" as="geometry" />
        </mxCell>
        <mxCell id="WOPA3h9E8CvAgLq2pJQE-54" value="&lt;font style=&quot;font-size: 20px;&quot;&gt;第 1 題&lt;/font&gt;" style="rounded=1;whiteSpace=wrap;html=1;" parent="WOPA3h9E8CvAgLq2pJQE-47" vertex="1">
          <mxGeometry x="240" y="50" width="160" height="60" as="geometry" />
        </mxCell>
        <mxCell id="WOPA3h9E8CvAgLq2pJQE-55" value="&lt;font style=&quot;font-size: 20px;&quot;&gt;35&lt;/font&gt;" style="ellipse;whiteSpace=wrap;html=1;aspect=fixed;fillColor=#f5f5f5;fontColor=#333333;strokeColor=#666666;" parent="WOPA3h9E8CvAgLq2pJQE-47" vertex="1">
          <mxGeometry x="115" y="480" width="50" height="50" as="geometry" />
        </mxCell>
        <mxCell id="WOPA3h9E8CvAgLq2pJQE-56" value="&lt;font style=&quot;font-size: 20px;&quot;&gt;27&lt;/font&gt;" style="ellipse;whiteSpace=wrap;html=1;aspect=fixed;fillColor=#f5f5f5;fontColor=#333333;strokeColor=#666666;" parent="WOPA3h9E8CvAgLq2pJQE-47" vertex="1">
          <mxGeometry x="295" y="480" width="50" height="50" as="geometry" />
        </mxCell>
        <mxCell id="WOPA3h9E8CvAgLq2pJQE-57" value="&lt;font style=&quot;font-size: 20px;&quot;&gt;12&lt;/font&gt;" style="ellipse;whiteSpace=wrap;html=1;aspect=fixed;fillColor=#f5f5f5;fontColor=#333333;strokeColor=#666666;" parent="WOPA3h9E8CvAgLq2pJQE-47" vertex="1">
          <mxGeometry x="475" y="480" width="50" height="50" as="geometry" />
        </mxCell>
        <mxCell id="WOPA3h9E8CvAgLq2pJQE-58" value="&lt;font style=&quot;font-size: 20px;&quot;&gt;74&lt;/font&gt;" style="ellipse;whiteSpace=wrap;html=1;aspect=fixed;fillColor=#f5f5f5;fontColor=#333333;strokeColor=#666666;" parent="WOPA3h9E8CvAgLq2pJQE-47" vertex="1">
          <mxGeometry x="655" y="480" width="50" height="50" as="geometry" />
        </mxCell>
        <mxCell id="WOPA3h9E8CvAgLq2pJQE-71" value="&lt;div style=&quot;align-items: flex-start; display: flex; flex: 1 1 auto; justify-content: flex-start; min-width: 0px; padding: 6px 0px; color: rgb(4, 30, 73); font-family: Roboto, &amp;quot;Helvetica Neue&amp;quot;, sans-serif; text-align: start; text-wrap: nowrap; background-color: rgb(255, 255, 255);&quot; class=&quot;database-key-value&quot;&gt;&lt;span style=&quot;line-height: 20px; color: var(--theme-color-fg-primary); display: inline-block; flex: 0 1 auto; min-width: 0px; pointer-events: none; text-wrap: wrap;&quot; class=&quot;database-leaf-value ng-star-inserted&quot;&gt;&lt;font style=&quot;font-size: 20px;&quot;&gt;小學堂大亂鬥最初是工程圈發起的，原先是設計給工程師做演算法競賽，後來突發奇想何不開放給所有人一起大亂鬥呢？！&lt;/font&gt;&lt;br&gt;&lt;/span&gt;&lt;/div&gt;" style="rounded=1;whiteSpace=wrap;html=1;" parent="WOPA3h9E8CvAgLq2pJQE-47" vertex="1">
          <mxGeometry x="60" y="230" width="700" height="130" as="geometry" />
        </mxCell>
        <mxCell id="WOPA3h9E8CvAgLq2pJQE-72" value="/show-intro" style="swimlane;whiteSpace=wrap;html=1;" parent="1" vertex="1">
          <mxGeometry y="2160" width="800" height="600" as="geometry" />
        </mxCell>
        <mxCell id="WOPA3h9E8CvAgLq2pJQE-78" value="&lt;div style=&quot;text-align: start;&quot;&gt;&lt;font face=&quot;Roboto, Helvetica Neue, sans-serif&quot; color=&quot;#041e49&quot;&gt;&lt;span style=&quot;font-size: 28px; background-color: rgb(255, 255, 255);&quot;&gt;前導劇情影片&lt;/span&gt;&lt;/font&gt;&lt;/div&gt;" style="rounded=1;whiteSpace=wrap;html=1;" parent="WOPA3h9E8CvAgLq2pJQE-72" vertex="1">
          <mxGeometry x="40" y="230" width="720" height="360" as="geometry" />
        </mxCell>
        <mxCell id="WOPA3h9E8CvAgLq2pJQE-81" value="ES_Memory.mp3" style="ellipse;shape=cloud;whiteSpace=wrap;html=1;fillColor=#dae8fc;strokeColor=#6c8ebf;" parent="1" vertex="1">
          <mxGeometry x="354" y="450" width="120" height="80" as="geometry" />
        </mxCell>
        <mxCell id="WOPA3h9E8CvAgLq2pJQE-82" value="ES_What Might Have Been.mp3" style="ellipse;shape=cloud;whiteSpace=wrap;html=1;fillColor=#dae8fc;strokeColor=#6c8ebf;" parent="1" vertex="1">
          <mxGeometry x="550" y="450" width="120" height="80" as="geometry" />
        </mxCell>
        <mxCell id="WOPA3h9E8CvAgLq2pJQE-83" value="ES_What Might Have Been.mp3" style="ellipse;shape=cloud;whiteSpace=wrap;html=1;fillColor=#dae8fc;strokeColor=#6c8ebf;" parent="1" vertex="1">
          <mxGeometry x="980" y="650" width="120" height="80" as="geometry" />
        </mxCell>
        <mxCell id="WOPA3h9E8CvAgLq2pJQE-84" value="ES_Memory.mp3" style="ellipse;shape=cloud;whiteSpace=wrap;html=1;fillColor=#dae8fc;strokeColor=#6c8ebf;" parent="1" vertex="1">
          <mxGeometry x="1200" y="40" width="120" height="80" as="geometry" />
        </mxCell>
        <mxCell id="WOPA3h9E8CvAgLq2pJQE-85" value="ES_This Day Will Be Remembered.mp3" style="ellipse;shape=cloud;whiteSpace=wrap;html=1;fillColor=#dae8fc;strokeColor=#6c8ebf;" parent="1" vertex="1">
          <mxGeometry x="1400" y="40" width="120" height="80" as="geometry" />
        </mxCell>
        <mxCell id="WOPA3h9E8CvAgLq2pJQE-87" value="/show-waiting" style="swimlane;whiteSpace=wrap;html=1;" parent="1" vertex="1">
          <mxGeometry x="854" y="2160" width="800" height="600" as="geometry" />
        </mxCell>
        <mxCell id="WOPA3h9E8CvAgLq2pJQE-88" value="&lt;div style=&quot;text-align: start;&quot;&gt;&lt;font face=&quot;Roboto, Helvetica Neue, sans-serif&quot; color=&quot;#041e49&quot;&gt;&lt;span style=&quot;font-size: 28px; background-color: rgb(255, 255, 255);&quot;&gt;前導劇情影片&lt;/span&gt;&lt;/font&gt;&lt;/div&gt;" style="rounded=1;whiteSpace=wrap;html=1;" parent="WOPA3h9E8CvAgLq2pJQE-87" vertex="1">
          <mxGeometry x="26" y="80" width="300" height="300" as="geometry" />
        </mxCell>
        <mxCell id="WOPA3h9E8CvAgLq2pJQE-89" value="QR" style="rounded=0;whiteSpace=wrap;html=1;" parent="WOPA3h9E8CvAgLq2pJQE-87" vertex="1">
          <mxGeometry x="506" y="200" width="240" height="240" as="geometry" />
        </mxCell>
        <mxCell id="WOPA3h9E8CvAgLq2pJQE-91" value="掃描 QRCode 加入小學堂" style="rounded=0;whiteSpace=wrap;html=1;" parent="WOPA3h9E8CvAgLq2pJQE-87" vertex="1">
          <mxGeometry x="505" y="500" width="241" height="60" as="geometry" />
        </mxCell>
        <mxCell id="WOPA3h9E8CvAgLq2pJQE-93" value="第一屆" style="rounded=1;whiteSpace=wrap;html=1;" parent="WOPA3h9E8CvAgLq2pJQE-87" vertex="1">
          <mxGeometry x="26" y="500" width="120" height="60" as="geometry" />
        </mxCell>
        <mxCell id="WOPA3h9E8CvAgLq2pJQE-94" value="第二屆" style="rounded=1;whiteSpace=wrap;html=1;" parent="WOPA3h9E8CvAgLq2pJQE-87" vertex="1">
          <mxGeometry x="626" y="80" width="120" height="60" as="geometry" />
        </mxCell>
        <mxCell id="WOPA3h9E8CvAgLq2pJQE-92" value="" style="endArrow=none;html=1;rounded=0;" parent="1" edge="1">
          <mxGeometry width="50" height="50" relative="1" as="geometry">
            <mxPoint x="1110" y="2760" as="sourcePoint" />
            <mxPoint x="1430" y="2180" as="targetPoint" />
          </mxGeometry>
        </mxCell>
        <mxCell id="WOPA3h9E8CvAgLq2pJQE-95" value="/show-outro" style="swimlane;whiteSpace=wrap;html=1;" parent="1" vertex="1">
          <mxGeometry y="2800" width="800" height="600" as="geometry" />
        </mxCell>
        <mxCell id="WOPA3h9E8CvAgLq2pJQE-96" value="&lt;div style=&quot;text-align: start;&quot;&gt;&lt;font face=&quot;Roboto, Helvetica Neue, sans-serif&quot; color=&quot;#041e49&quot;&gt;&lt;span style=&quot;font-size: 28px; background-color: rgb(255, 255, 255);&quot;&gt;花絮影片&lt;/span&gt;&lt;/font&gt;&lt;/div&gt;" style="rounded=1;whiteSpace=wrap;html=1;" parent="WOPA3h9E8CvAgLq2pJQE-95" vertex="1">
          <mxGeometry x="40" y="80" width="720" height="480" as="geometry" />
        </mxCell>
        <mxCell id="WOPA3h9E8CvAgLq2pJQE-97" value="/show-minigame" style="swimlane;whiteSpace=wrap;html=1;" parent="1" vertex="1">
          <mxGeometry x="1772" y="2160" width="800" height="600" as="geometry" />
        </mxCell>
        <mxCell id="WOPA3h9E8CvAgLq2pJQE-98" value="&lt;div style=&quot;text-align: start;&quot;&gt;&lt;font face=&quot;Roboto, Helvetica Neue, sans-serif&quot; color=&quot;#041e49&quot;&gt;&lt;span style=&quot;font-size: 28px; background-color: rgb(255, 255, 255);&quot;&gt;撲克牌&lt;/span&gt;&lt;/font&gt;&lt;/div&gt;" style="rounded=1;whiteSpace=wrap;html=1;" parent="WOPA3h9E8CvAgLq2pJQE-97" vertex="1">
          <mxGeometry x="40" y="80" width="320" height="480" as="geometry" />
        </mxCell>
        <mxCell id="WOPA3h9E8CvAgLq2pJQE-100" value="" style="rounded=1;whiteSpace=wrap;html=1;" parent="WOPA3h9E8CvAgLq2pJQE-97" vertex="1">
          <mxGeometry x="500" y="80" width="270" height="80" as="geometry" />
        </mxCell>
        <mxCell id="WOPA3h9E8CvAgLq2pJQE-102" value="" style="rounded=1;whiteSpace=wrap;html=1;" parent="WOPA3h9E8CvAgLq2pJQE-97" vertex="1">
          <mxGeometry x="379" y="80" width="91" height="80" as="geometry" />
        </mxCell>
        <mxCell id="WOPA3h9E8CvAgLq2pJQE-104" value="" style="rounded=1;whiteSpace=wrap;html=1;" parent="WOPA3h9E8CvAgLq2pJQE-97" vertex="1">
          <mxGeometry x="500" y="178" width="270" height="80" as="geometry" />
        </mxCell>
        <mxCell id="WOPA3h9E8CvAgLq2pJQE-105" value="" style="rounded=1;whiteSpace=wrap;html=1;" parent="WOPA3h9E8CvAgLq2pJQE-97" vertex="1">
          <mxGeometry x="379" y="178" width="91" height="80" as="geometry" />
        </mxCell>
        <mxCell id="WOPA3h9E8CvAgLq2pJQE-106" value="" style="rounded=1;whiteSpace=wrap;html=1;" parent="WOPA3h9E8CvAgLq2pJQE-97" vertex="1">
          <mxGeometry x="500" y="280" width="270" height="80" as="geometry" />
        </mxCell>
        <mxCell id="WOPA3h9E8CvAgLq2pJQE-107" value="" style="rounded=1;whiteSpace=wrap;html=1;" parent="WOPA3h9E8CvAgLq2pJQE-97" vertex="1">
          <mxGeometry x="379" y="280" width="91" height="80" as="geometry" />
        </mxCell>
        <mxCell id="WOPA3h9E8CvAgLq2pJQE-108" value="" style="rounded=1;whiteSpace=wrap;html=1;" parent="WOPA3h9E8CvAgLq2pJQE-97" vertex="1">
          <mxGeometry x="500" y="380" width="270" height="80" as="geometry" />
        </mxCell>
        <mxCell id="WOPA3h9E8CvAgLq2pJQE-109" value="" style="rounded=1;whiteSpace=wrap;html=1;" parent="WOPA3h9E8CvAgLq2pJQE-97" vertex="1">
          <mxGeometry x="379" y="380" width="91" height="80" as="geometry" />
        </mxCell>
        <mxCell id="WOPA3h9E8CvAgLq2pJQE-110" value="" style="rounded=1;whiteSpace=wrap;html=1;" parent="WOPA3h9E8CvAgLq2pJQE-97" vertex="1">
          <mxGeometry x="500" y="480" width="270" height="80" as="geometry" />
        </mxCell>
        <mxCell id="WOPA3h9E8CvAgLq2pJQE-111" value="" style="rounded=1;whiteSpace=wrap;html=1;" parent="WOPA3h9E8CvAgLq2pJQE-97" vertex="1">
          <mxGeometry x="379" y="480" width="91" height="80" as="geometry" />
        </mxCell>
        <mxCell id="gNR7i1E3Q-sZjsSBcsET-1" value="" style="rounded=1;whiteSpace=wrap;html=1;fillColor=#f5f5f5;strokeColor=#666666;fontColor=#333333;" vertex="1" parent="1">
          <mxGeometry x="90" y="-830" width="450" height="800" as="geometry" />
        </mxCell>
        <mxCell id="gNR7i1E3Q-sZjsSBcsET-2" value="馬上進入" style="rounded=1;whiteSpace=wrap;html=1;fillColor=#ffe6cc;strokeColor=#d79b00;" vertex="1" parent="1">
          <mxGeometry x="225" y="-210" width="180" height="80" as="geometry" />
        </mxCell>
        <mxCell id="gNR7i1E3Q-sZjsSBcsET-3" value="LOGO" style="ellipse;whiteSpace=wrap;html=1;aspect=fixed;fillColor=#dae8fc;strokeColor=#6c8ebf;" vertex="1" parent="1">
          <mxGeometry x="350" y="-760" width="160" height="160" as="geometry" />
        </mxCell>
        <mxCell id="gNR7i1E3Q-sZjsSBcsET-5" value="小學堂大亂鬥&lt;div style=&quot;font-size: 24px;&quot;&gt;第二屆&lt;/div&gt;" style="rounded=0;whiteSpace=wrap;html=1;fontSize=24;" vertex="1" parent="1">
          <mxGeometry x="150" y="-500" width="330" height="100" as="geometry" />
        </mxCell>
        <mxCell id="gNR7i1E3Q-sZjsSBcsET-6" value="" style="rounded=1;whiteSpace=wrap;html=1;fillColor=#f5f5f5;strokeColor=#666666;fontColor=#333333;" vertex="1" parent="1">
          <mxGeometry x="660" y="-830" width="450" height="800" as="geometry" />
        </mxCell>
        <mxCell id="gNR7i1E3Q-sZjsSBcsET-7" value="送出" style="rounded=1;whiteSpace=wrap;html=1;fillColor=#ffe6cc;strokeColor=#d79b00;fontSize=20;" vertex="1" parent="1">
          <mxGeometry x="795" y="-130" width="180" height="50" as="geometry" />
        </mxCell>
        <mxCell id="gNR7i1E3Q-sZjsSBcsET-9" value="&lt;span style=&quot;text-align: start;&quot; data-sheets-root=&quot;1&quot;&gt;&lt;font style=&quot;font-size: 20px;&quot;&gt;「汾河」，其中請問&quot;汾&quot;字怎麼唸？&lt;/font&gt;&lt;/span&gt;" style="rounded=0;whiteSpace=wrap;html=1;fontSize=24;" vertex="1" parent="1">
          <mxGeometry x="720" y="-620" width="330" height="100" as="geometry" />
        </mxCell>
        <mxCell id="gNR7i1E3Q-sZjsSBcsET-10" value="文字類組" style="rounded=0;whiteSpace=wrap;html=1;fontSize=20;" vertex="1" parent="1">
          <mxGeometry x="720" y="-770" width="100" height="50" as="geometry" />
        </mxCell>
        <mxCell id="gNR7i1E3Q-sZjsSBcsET-11" value="第 1 題" style="rounded=0;whiteSpace=wrap;html=1;fontSize=20;" vertex="1" parent="1">
          <mxGeometry x="837" y="-770" width="93" height="50" as="geometry" />
        </mxCell>
        <mxCell id="gNR7i1E3Q-sZjsSBcsET-12" value="&lt;span style=&quot;text-align: start; font-size: 10pt;&quot; data-sheets-root=&quot;1&quot;&gt;ㄈㄣ&lt;/span&gt;" style="rounded=1;whiteSpace=wrap;html=1;" vertex="1" parent="1">
          <mxGeometry x="720" y="-490" width="330" height="60" as="geometry" />
        </mxCell>
        <mxCell id="gNR7i1E3Q-sZjsSBcsET-13" value="&lt;span style=&quot;text-align: start; font-size: 10pt;&quot; data-sheets-root=&quot;1&quot;&gt;ㄆㄢˊ&lt;/span&gt;" style="rounded=1;whiteSpace=wrap;html=1;" vertex="1" parent="1">
          <mxGeometry x="720" y="-400" width="330" height="60" as="geometry" />
        </mxCell>
        <mxCell id="gNR7i1E3Q-sZjsSBcsET-14" value="&lt;span style=&quot;font-family: &amp;quot;Microsoft JhengHei&amp;quot;; font-size: 13px; text-align: left; white-space-collapse: preserve; background-color: rgb(255, 255, 255);&quot;&gt;ㄈㄣˊ&lt;/span&gt;" style="rounded=1;whiteSpace=wrap;html=1;" vertex="1" parent="1">
          <mxGeometry x="720" y="-310" width="330" height="60" as="geometry" />
        </mxCell>
        <mxCell id="gNR7i1E3Q-sZjsSBcsET-15" value="&lt;span style=&quot;font-family: &amp;quot;Microsoft JhengHei&amp;quot;; font-size: 13px; text-align: left; white-space-collapse: preserve; background-color: rgb(255, 255, 255);&quot;&gt;ㄆㄢ&lt;/span&gt;" style="rounded=1;whiteSpace=wrap;html=1;" vertex="1" parent="1">
          <mxGeometry x="720" y="-220" width="330" height="60" as="geometry" />
        </mxCell>
        <mxCell id="gNR7i1E3Q-sZjsSBcsET-18" value="第 10 隊" style="rounded=0;whiteSpace=wrap;html=1;fontSize=20;" vertex="1" parent="1">
          <mxGeometry x="720" y="-700" width="100" height="50" as="geometry" />
        </mxCell>
        <mxCell id="gNR7i1E3Q-sZjsSBcsET-19" value="答對 3 題" style="rounded=0;whiteSpace=wrap;html=1;fontSize=20;" vertex="1" parent="1">
          <mxGeometry x="837" y="-700" width="93" height="50" as="geometry" />
        </mxCell>
        <mxCell id="gNR7i1E3Q-sZjsSBcsET-22" value="" style="ellipse;whiteSpace=wrap;html=1;aspect=fixed;" vertex="1" parent="1">
          <mxGeometry x="950" y="-770" width="100" height="100" as="geometry" />
        </mxCell>
        <mxCell id="gNR7i1E3Q-sZjsSBcsET-23" value="" style="rounded=1;whiteSpace=wrap;html=1;fillColor=#f5f5f5;strokeColor=#666666;fontColor=#333333;" vertex="1" parent="1">
          <mxGeometry x="1235" y="-840" width="450" height="800" as="geometry" />
        </mxCell>
        <mxCell id="gNR7i1E3Q-sZjsSBcsET-24" value="送出" style="rounded=1;whiteSpace=wrap;html=1;fillColor=#ffe6cc;strokeColor=#d79b00;fontSize=20;" vertex="1" parent="1">
          <mxGeometry x="1370" y="-140" width="180" height="50" as="geometry" />
        </mxCell>
        <mxCell id="gNR7i1E3Q-sZjsSBcsET-25" value="&lt;span style=&quot;text-align: start;&quot; data-sheets-root=&quot;1&quot;&gt;&lt;font style=&quot;font-size: 20px;&quot;&gt;「汾河」，其中請問&quot;汾&quot;字怎麼唸？&lt;/font&gt;&lt;/span&gt;" style="rounded=0;whiteSpace=wrap;html=1;fontSize=24;" vertex="1" parent="1">
          <mxGeometry x="1295" y="-630" width="330" height="100" as="geometry" />
        </mxCell>
        <mxCell id="gNR7i1E3Q-sZjsSBcsET-26" value="文字類組" style="rounded=0;whiteSpace=wrap;html=1;fontSize=20;" vertex="1" parent="1">
          <mxGeometry x="1295" y="-780" width="100" height="50" as="geometry" />
        </mxCell>
        <mxCell id="gNR7i1E3Q-sZjsSBcsET-27" value="第 1 題" style="rounded=0;whiteSpace=wrap;html=1;fontSize=20;" vertex="1" parent="1">
          <mxGeometry x="1412" y="-780" width="93" height="50" as="geometry" />
        </mxCell>
        <mxCell id="gNR7i1E3Q-sZjsSBcsET-28" value="&lt;span style=&quot;text-align: start; font-size: 10pt;&quot; data-sheets-root=&quot;1&quot;&gt;ㄈㄣ&lt;/span&gt;" style="rounded=1;whiteSpace=wrap;html=1;" vertex="1" parent="1">
          <mxGeometry x="1295" y="-500" width="330" height="60" as="geometry" />
        </mxCell>
        <mxCell id="gNR7i1E3Q-sZjsSBcsET-29" value="&lt;span style=&quot;text-align: start; font-size: 10pt;&quot; data-sheets-root=&quot;1&quot;&gt;ㄆㄢˊ&lt;/span&gt;" style="rounded=1;whiteSpace=wrap;html=1;" vertex="1" parent="1">
          <mxGeometry x="1295" y="-410" width="330" height="60" as="geometry" />
        </mxCell>
        <mxCell id="gNR7i1E3Q-sZjsSBcsET-30" value="&lt;span style=&quot;font-family: &amp;quot;Microsoft JhengHei&amp;quot;; font-size: 13px; text-align: left; white-space-collapse: preserve; background-color: rgb(255, 255, 255);&quot;&gt;ㄈㄣˊ&lt;/span&gt;" style="rounded=1;whiteSpace=wrap;html=1;" vertex="1" parent="1">
          <mxGeometry x="1295" y="-320" width="330" height="60" as="geometry" />
        </mxCell>
        <mxCell id="gNR7i1E3Q-sZjsSBcsET-31" value="&lt;span style=&quot;font-family: &amp;quot;Microsoft JhengHei&amp;quot;; font-size: 13px; text-align: left; white-space-collapse: preserve; background-color: rgb(255, 255, 255);&quot;&gt;ㄆㄢ&lt;/span&gt;" style="rounded=1;whiteSpace=wrap;html=1;" vertex="1" parent="1">
          <mxGeometry x="1295" y="-230" width="330" height="60" as="geometry" />
        </mxCell>
        <mxCell id="gNR7i1E3Q-sZjsSBcsET-32" value="第 10 隊" style="rounded=0;whiteSpace=wrap;html=1;fontSize=20;" vertex="1" parent="1">
          <mxGeometry x="1295" y="-710" width="100" height="50" as="geometry" />
        </mxCell>
        <mxCell id="gNR7i1E3Q-sZjsSBcsET-33" value="答對 3 題" style="rounded=0;whiteSpace=wrap;html=1;fontSize=20;" vertex="1" parent="1">
          <mxGeometry x="1412" y="-710" width="93" height="50" as="geometry" />
        </mxCell>
        <mxCell id="gNR7i1E3Q-sZjsSBcsET-34" value="" style="ellipse;whiteSpace=wrap;html=1;aspect=fixed;" vertex="1" parent="1">
          <mxGeometry x="1525" y="-780" width="100" height="100" as="geometry" />
        </mxCell>
      </root>
    </mxGraphModel>
  </diagram>
</mxfile>
